# xmcd
#
# Track frame offsets:
#	150
#	10351
#	18964
#	25513
#	34045
#	38555
#	43948
#	53014
#	65529
#	74776
#	80266
#	83561
#	86183
#	90213
#	99465
#	108893
#	117406
#	123509
#	129260
#	135696
#	142845
#	152416
#	161040
#	171125
#	177816
#	186124
#
# Disc length: 2575 seconds
#
# Revision: 0
# Processed by: cddbd v1.5.2PL0 Copyright (c) Steve Scherf et al.
# Submitted via: dBpowerAMP V4.0
#
DISCID=450a0d1a
DTITLE=Mick Edwards - Line Dance and Country Collection
DYEAR=1900
DGENRE=Country
TTITLE0=Mick Edwards - Oakie From Muskokie (Chatta)
TTITLE1=Mick Edwards - Last Thing On My Mind (Chatta)
TTITLE2=Jumbalyo (Old Time Country)
TTITLE3=Jealous Heart (Boot Scoot)
TTITLE4=Rose Of Sanantone (Line Walk)
TTITLE5=Let Your Love Flow (Line Walk)
TTITLE6=Put Another Log On The Fire (Country Beat)
TTITLE7=Help Me Make It Through The Night (Chatta)
TTITLE8=Me and Bobby Magee (Line Walk)
TTITLE9=Country Girl Agaian (Old Time Country)
TTITLE10=I Still Need Someone (Old Time Country)
TTITLE11=I'll Walk The Line (Country Rhythm)
TTITLE12=Folsom Prison Blues (Country Rhythm)
TTITLE13=Good Hearted Woman (Chatta)
TTITLE14=Blanket On The Ground (Old Time Country)
TTITLE15=Red River Valley (Chatta)
TTITLE16=Take These Chains (Line Walk
TTITLE17=Your Cheatin' Heart (Line Walk)
TTITLE18=The Gambler (Chatta)
TTITLE19=Da Do Ron Ron (Boot Scoot)
TTITLE20=San Quinton (Cowboy Rhythm)
TTITLE21=Gypsy Woman (Chatta)
TTITLE22=O' Lonesome Me (Old Time Country)
TTITLE23=Freight Train (Country Train)
TTITLE24=Jessie James (Country Rhythm)
TTITLE25=It Takes A Worried Man (Country Rhythm)
EXTD=Line Dance and Country Collection
EXTT0=
EXTT1=
EXTT2=
EXTT3=
EXTT4=
EXTT5=
EXTT6=
EXTT7=
EXTT8=
EXTT9=
EXTT10=
EXTT11=
EXTT12=
EXTT13=
EXTT14=
EXTT15=
EXTT16=
EXTT17=
EXTT18=
EXTT19=
EXTT20=
EXTT21=
EXTT22=
EXTT23=
EXTT24=
EXTT25=
PLAYORDER=
